<svg width="52" height="23" viewBox="0 0 52 23" fill="none" xmlns="http://www.w3.org/2000/svg">
<path d="M2 9.98779C1.17157 9.98779 0.5 10.6594 0.5 11.4878C0.5 12.3162 1.17157 12.9878 2 12.9878V9.98779ZM51.0607 12.5485C51.6464 11.9627 51.6464 11.0129 51.0607 10.4271L41.5147 0.881191C40.9289 0.295404 39.9792 0.295404 39.3934 0.881191C38.8076 1.46698 38.8076 2.41673 39.3934 3.00251L47.8787 11.4878L39.3934 19.9731C38.8076 20.5589 38.8076 21.5086 39.3934 22.0944C39.9792 22.6802 40.9289 22.6802 41.5147 22.0944L51.0607 12.5485ZM2 12.9878H50V9.98779H2V12.9878Z" fill="#2B2B2B"/>
</svg>
