<svg width="55" height="18" viewBox="0 0 55 18" fill="none" xmlns="http://www.w3.org/2000/svg">
<g clip-path="url(#clip0_470_1107)">
<path d="M6.87991 6.88134V8.69725H11.3224C11.2044 9.70179 10.8506 10.4745 10.3002 10.9768C9.6712 11.595 8.64904 12.2904 6.87991 12.2904C4.16726 12.2904 2.04432 10.1268 2.04432 7.46088C2.04432 4.79498 4.12795 2.63134 6.87991 2.63134C8.33453 2.63134 9.43531 3.21088 10.2216 3.94498L11.5189 2.66998C10.4182 1.62679 8.92423 0.81543 6.87991 0.81543C3.1451 0.81543 0 3.79043 0 7.46088C0 11.1313 3.1451 14.1063 6.87991 14.1063C8.88492 14.1063 10.4182 13.4495 11.5976 12.2518C12.8163 11.0541 13.2094 9.35407 13.2094 8.00179C13.2094 7.57679 13.1701 7.19043 13.1308 6.88134H6.87991Z" fill="#4285F4"/>
<path d="M18.7134 5.37451C16.3152 5.37451 14.3102 7.19042 14.3102 9.66315C14.3102 12.1359 16.2759 13.9518 18.7134 13.9518C21.1508 13.9518 23.1165 12.1745 23.1165 9.70178C23.1165 7.19042 21.1508 5.37451 18.7134 5.37451ZM18.7134 12.2904C17.3767 12.2904 16.2366 11.2086 16.2366 9.70178C16.2366 8.15633 17.3767 7.11315 18.7134 7.11315C20.0501 7.11315 21.1902 8.15633 21.1902 9.70178C21.1902 11.2086 20.0501 12.2904 18.7134 12.2904Z" fill="#EA4335"/>
<path d="M40.218 6.34042H40.1394C39.707 5.83815 38.8814 5.37451 37.8199 5.37451C35.6183 5.37451 33.7313 7.22906 33.7313 9.66315C33.7313 12.0586 35.6183 13.9518 37.8199 13.9518C38.8814 13.9518 39.707 13.4881 40.1394 12.9859H40.218V13.6041C40.218 15.2268 39.3138 16.1154 37.8985 16.1154C36.7191 16.1154 36.0115 15.3041 35.697 14.57L34.0458 15.2654C34.5175 16.3859 35.8149 17.8154 37.9378 17.8154C40.1787 17.8154 42.1051 16.5018 42.1051 13.3336V5.60633H40.2967V6.34042H40.218ZM38.0165 12.2904C36.6798 12.2904 35.697 11.17 35.697 9.70178C35.697 8.19497 36.7191 7.11315 38.0165 7.11315C39.3138 7.11315 40.336 8.2336 40.336 9.74042C40.3753 11.2086 39.3531 12.2904 38.0165 12.2904Z" fill="#4285F4"/>
<path d="M28.5025 5.37451C26.1044 5.37451 24.0994 7.19042 24.0994 9.66315C24.0994 12.1359 26.0651 13.9518 28.5025 13.9518C30.94 13.9518 32.9057 12.1745 32.9057 9.70178C32.9057 7.19042 30.94 5.37451 28.5025 5.37451ZM28.5025 12.2904C27.1658 12.2904 26.0257 11.2086 26.0257 9.70178C26.0257 8.15633 27.1658 7.11315 28.5025 7.11315C29.8392 7.11315 30.9793 8.15633 30.9793 9.70178C30.9793 11.2086 29.8392 12.2904 28.5025 12.2904Z" fill="#FBBC05"/>
<path d="M43.5597 1.00867H45.4468V13.9905H43.5597V1.00867Z" fill="#34A853"/>
<path d="M51.2652 12.2904C50.2823 12.2904 49.614 11.8654 49.1422 10.9768L55 8.61997L54.8034 8.11769C54.4496 7.15178 53.3095 5.37451 51.0686 5.37451C48.8277 5.37451 46.9407 7.11315 46.9407 9.66315C46.9407 12.0586 48.7884 13.9518 51.2652 13.9518C53.2702 13.9518 54.4103 12.7541 54.9214 12.0586L53.4274 11.0927C52.9164 11.8268 52.248 12.2904 51.2652 12.2904ZM51.1473 6.99724C51.9335 6.99724 52.6019 7.3836 52.7984 7.92451L48.8671 9.54724C48.8277 7.76997 50.1644 6.99724 51.1473 6.99724Z" fill="#EA4335"/>
</g>
<defs>
<clipPath id="clip0_470_1107">
<rect width="55" height="17" fill="white" transform="translate(0 0.81543)"/>
</clipPath>
</defs>
</svg>
