<svg width="130" height="39" viewBox="0 0 130 39" fill="none" xmlns="http://www.w3.org/2000/svg">
<path d="M12.0682 39H0.875V9.90909H11.9545C14.947 9.90909 17.5322 10.4915 19.7102 11.6562C21.8977 12.8116 23.5833 14.4782 24.767 16.6562C25.9602 18.8248 26.5568 21.4242 26.5568 24.4545C26.5568 27.4848 25.965 30.089 24.7812 32.267C23.5975 34.4356 21.9214 36.1023 19.7528 37.267C17.5843 38.4223 15.0227 39 12.0682 39ZM8.77273 32.2955H11.7841C13.2235 32.2955 14.4498 32.0634 15.4631 31.5994C16.4858 31.1354 17.2623 30.3352 17.7926 29.1989C18.3324 28.0625 18.6023 26.4811 18.6023 24.4545C18.6023 22.428 18.3277 20.8466 17.7784 19.7102C17.2386 18.5739 16.4432 17.7737 15.392 17.3097C14.3504 16.8456 13.072 16.6136 11.5568 16.6136H8.77273V32.2955ZM29.0109 39V9.90909H49.9768V16.2727H36.9087V21.2727H48.8973V27.6364H36.9087V32.6364H49.92V39H29.0109ZM52.8074 39V34.625L66.5574 16.2727H52.8642V9.90909H76.6142V14.2841L62.8642 32.6364H76.5574V39H52.8074ZM64.796 7.63636C63.7354 7.63636 62.8263 7.28598 62.0687 6.58523C61.3112 5.88447 60.9324 5.04167 60.9324 4.05682C60.9324 3.07197 61.3112 2.22917 62.0687 1.52841C62.8263 0.827651 63.7354 0.477273 64.796 0.477273C65.8661 0.477273 66.7752 0.827651 67.5233 1.52841C68.2809 2.22917 68.6597 3.07197 68.6597 4.05682C68.6597 5.04167 68.2809 5.88447 67.5233 6.58523C66.7752 7.28598 65.8661 7.63636 64.796 7.63636ZM86.824 39H78.3013L87.9036 9.90909H98.699L108.301 39H99.7786L93.4149 17.9205H93.1876L86.824 39ZM85.2331 27.5227H101.256V33.4318H85.2331V27.5227ZM109.903 39V9.90909H117.801V32.6364H129.562V39H109.903Z" fill="#2B2B2B"/>
</svg>
