<svg width="18" height="18" viewBox="0 0 18 18" fill="none" xmlns="http://www.w3.org/2000/svg">
<path d="M12.4999 11H11.7099L11.4299 10.73C12.4099 9.59 12.9999 8.11 12.9999 6.5C12.9999 2.91 10.0899 0 6.49988 0C2.90988 0 -0.00012207 2.91 -0.00012207 6.5C-0.00012207 10.09 2.90988 13 6.49988 13C8.10988 13 9.58988 12.41 10.7299 11.43L10.9999 11.71V12.5L15.9999 17.49L17.4899 16L12.4999 11ZM6.49988 11C4.00988 11 1.99988 8.99 1.99988 6.5C1.99988 4.01 4.00988 2 6.49988 2C8.98988 2 10.9999 4.01 10.9999 6.5C10.9999 8.99 8.98988 11 6.49988 11Z" fill="#555555"/>
</svg>
